<?xml version="1.0" standalone="no"?>
<!DOCTYPE svg PUBLIC "-//W3C//DTD SVG 20010904//EN"
 "http://www.w3.org/TR/2001/REC-SVG-20010904/DTD/svg10.dtd">
<svg version="1.0" xmlns="http://www.w3.org/2000/svg"
 width="400.000000pt" height="400.000000pt" viewBox="0 0 400.000000 400.000000"
 preserveAspectRatio="xMidYMid meet">
<metadata>
Created by potrace 1.10, written by Peter Selinger 2001-2011
</metadata>
<g transform="translate(0.000000,400.000000) scale(0.100000,-0.100000)"
fill="#ffffff" stroke="none">
<path d="M1535 3451 c-248 -33 -438 -148 -519 -315 -85 -177 -81 -349 13 -541
82 -165 193 -233 269 -163 40 38 27 73 -68 183 -86 100 -95 123 -94 245 0 84
5 116 23 162 30 77 106 159 182 197 100 50 190 65 353 58 121 -5 180 -13 304
-42 34 -8 27 -19 -29 -45 -28 -14 -60 -35 -70 -49 -25 -32 -25 -85 2 -112 27
-27 57 -22 199 33 277 106 430 130 601 94 197 -42 411 -183 479 -316 64 -125
15 -298 -159 -569 -80 -124 -91 -148 -91 -196 0 -37 28 -65 65 -65 88 0 266
261 350 514 41 122 47 222 20 316 -49 164 -191 307 -405 409 -221 104 -420
125 -671 70 -56 -13 -57 -12 -100 20 -106 78 -456 138 -654 112z"/>
<path d="M741 3065 c-157 -90 -361 -355 -435 -565 -38 -108 -47 -265 -22 -374
85 -362 485 -593 900 -521 245 43 623 207 742 322 45 44 55 75 34 114 -24 44
-94 24 -380 -114 -403 -194 -640 -214 -871 -76 -94 56 -173 139 -217 228 -34
68 -37 84 -40 171 -8 208 81 385 297 597 55 54 106 110 114 126 20 39 10 76
-27 98 -39 24 -42 24 -95 -6z"/>
<path d="M3430 2643 c-31 -39 -22 -103 31 -223 76 -173 109 -297 109 -408 0
-125 -55 -284 -129 -372 l-27 -33 -60 41 c-37 26 -84 48 -126 59 -63 16 -69
16 -102 0 -43 -20 -55 -56 -32 -92 9 -13 58 -49 109 -79 107 -64 128 -81 152
-118 41 -66 -30 -204 -143 -276 -69 -45 -177 -77 -356 -107 -154 -25 -193 -36
-208 -59 -12 -18 -9 -84 8 -148 8 -33 14 -72 12 -85 -3 -26 -3 -25 -54 18 -29
24 -98 86 -155 137 -195 176 -363 289 -486 328 -81 25 -141 34 -318 50 -286
24 -321 36 -444 149 -87 81 -141 106 -180 86 -28 -16 -29 -82 0 -136 31 -60
117 -143 179 -175 113 -57 224 -81 467 -100 73 -5 154 -15 180 -21 129 -31
287 -135 553 -365 167 -143 230 -184 287 -184 60 0 94 20 123 72 25 45 32 129
16 210 -6 34 -5 38 16 42 329 63 447 112 564 233 72 76 104 153 118 292 11
114 13 119 49 161 48 56 122 208 141 290 21 88 20 192 -4 335 -33 205 -115
412 -187 475 -42 38 -75 38 -103 3z"/>
</g>
</svg>
