<?xml version="1.0" standalone="no"?>
<!DOCTYPE svg PUBLIC "-//W3C//DTD SVG 20010904//EN"
 "http://www.w3.org/TR/2001/REC-SVG-20010904/DTD/svg10.dtd">
<svg version="1.0" xmlns="http://www.w3.org/2000/svg"
 width="400.000000pt" height="400.000000pt" viewBox="0 0 400.000000 400.000000"
 preserveAspectRatio="xMidYMid meet">
<metadata>
Created by potrace 1.14, written by Peter Selinger 2001-2017
</metadata>
<g transform="translate(0.000000,400.000000) scale(0.100000,-0.100000)"
fill="#000000" stroke="none">
<path d="M1500 3444 c-220 -35 -401 -145 -472 -287 -43 -86 -75 -177 -61 -177
3 0 1 -6 -4 -12 -14 -20 -8 -156 10 -228 23 -90 88 -217 135 -266 50 -52 103
-77 142 -69 32 7 70 47 70 74 0 21 -29 67 -71 113 -98 106 -113 139 -116 258
-3 125 22 199 94 279 92 102 224 152 411 153 132 1 382 -39 382 -61 0 -4 -22
-18 -50 -31 -27 -13 -57 -31 -66 -41 -23 -25 -29 -90 -11 -114 24 -32 78 -23
241 39 82 31 159 58 170 61 12 2 50 11 86 19 91 20 248 18 338 -4 98 -25 248
-100 333 -168 38 -30 69 -58 69 -62 0 -3 8 -15 18 -26 40 -44 57 -96 57 -179
-1 -126 -46 -229 -209 -485 -53 -83 -66 -113 -66 -155 0 -37 28 -65 65 -65
104 0 339 386 381 626 34 189 -51 360 -261 527 -87 70 -274 145 -425 172 -83
15 -251 17 -308 4 -44 -9 -87 -18 -125 -25 -20 -4 -39 3 -70 26 -46 34 -162
74 -259 90 -35 5 -76 12 -91 15 -59 12 -265 11 -337 -1z"/>
<path d="M750 3070 c-62 -33 -173 -134 -240 -219 -190 -240 -273 -479 -234
-680 43 -228 180 -398 403 -504 139 -65 345 -93 486 -65 28 5 63 12 79 15 99
17 317 98 470 174 209 104 290 189 241 253 -29 38 -77 24 -365 -111 -158 -75
-202 -95 -219 -98 -9 -2 -41 -13 -71 -23 -166 -59 -349 -66 -473 -19 -237 92
-390 287 -381 488 8 200 92 355 308 571 64 64 117 124 117 135 3 51 -6 69 -48
91 -28 15 -31 15 -73 -8z"/>
<path d="M3431 2644 c-12 -15 -22 -31 -22 -35 -1 -5 -2 -15 -3 -21 -3 -21 19
-86 67 -200 74 -173 91 -245 91 -378 0 -125 -18 -198 -71 -289 -32 -55 -73
-111 -82 -111 -3 0 -19 11 -35 25 -43 37 -127 74 -183 80 -38 5 -55 1 -82 -15
-30 -19 -33 -25 -27 -53 7 -38 35 -63 136 -123 153 -90 172 -129 120 -241 -25
-52 -100 -130 -146 -152 -16 -7 -40 -19 -54 -26 -26 -14 -157 -48 -220 -59
-19 -3 -51 -8 -70 -11 -102 -16 -154 -27 -175 -37 -41 -19 -46 -55 -21 -165
13 -54 21 -102 19 -106 -5 -8 -60 30 -99 68 -117 114 -333 291 -404 333 -25
14 -47 29 -50 32 -6 7 -127 61 -144 64 -6 1 -27 7 -46 13 -42 14 -157 31 -255
38 -225 16 -275 25 -345 60 -25 13 -74 51 -110 85 -119 113 -216 129 -213 35
2 -76 91 -194 188 -248 45 -26 182 -73 235 -81 69 -10 178 -21 315 -32 130
-10 252 -55 348 -128 26 -20 52 -36 57 -36 6 0 10 -3 10 -7 0 -5 16 -19 35
-32 19 -13 45 -33 58 -45 14 -11 42 -35 63 -53 22 -17 48 -40 59 -50 11 -10
47 -40 80 -68 33 -27 71 -60 84 -72 35 -31 111 -70 147 -76 19 -3 48 3 73 14
59 26 90 94 86 185 -2 36 -6 78 -10 94 -7 31 -1 35 70 44 248 30 462 138 557
281 58 86 71 140 77 306 0 19 9 44 19 55 57 61 113 164 153 279 26 74 27 89
24 210 -6 251 -88 525 -191 632 -48 51 -82 56 -113 17z"/>
</g>
</svg>
